{"title":"Artiljero.2012.[pirati.rs]","uid":8035348,"size":714822677,"categoryP":"video","categoryS":"movies","magnet":"?xt=urn:btih:157bac70c0a04cb41e8a2d3f99fc458163d03b11&amp;dn=Artiljero.2012.%5Bpirati.rs%5D&amp;tr=udp%3A%2F%2Ftracker.openbittorrent.com%3A80&amp;tr=udp%3A%2F%2Fopen.demonii.com%3A1337&amp;tr=udp%3A%2F%2Ftracker.coppersurfer.tk%3A6969&amp;tr=udp%3A%2F%2Fexodus.desync.com%3A6969","seeders":2,"leechers":0,"uploader":"gashoga","files":-1,"time":1358467832,"description":"INFO:\nGeneral\nComplete name                            : C:Artiljero.2012.[pirati.rs]Artiljero.2012.[pirati.rs].avi\nFormat                                   : AVI\nFormat/Info                              : Audio Video Interleave\nFile size                                : 682 MiB\nDuration                                 : 1h 42mn\nOverall bit rate mode                    : Variable\nOverall bit rate                         : 933 Kbps\nWriting application                      : MEncoder r33883\nWriting library                          : MPlayer\n\nVideo\nID                                       : 0\nFormat                                   : MPEG-4 Visual\nFormat profile                           : Simple@L3\nFormat settings, BVOP                    : No\nFormat settings, QPel                    : No\nFormat settings, GMC                     : No warppoints\nFormat settings, Matrix                  : Default (H.263)\nCodec ID                                 : XVID\nCodec ID/Hint                            : XviD\nDuration                                 : 1h 42mn\nBit rate                                 : 817 Kbps\nWidth                                    : 640 pixels\nHeight                                   : 272 pixels\nDisplay aspect ratio                     : 2.35:1\nFrame rate                               : 23.976 fps\nColor space                              : YUV\nChroma subsampling                       : 4:2:0\nBit depth                                : 8 bits\nScan type                                : Progressive\nCompression mode                         : Lossy\nBits/(Pixel*Frame)                       : 0.196\nStream size                              : 597 MiB (88%)\nWriting library                          : XviD 63\n\nAudio\nID                                       : 1\nFormat                                   : MPEG Audio\nFormat version                           : Version 1\nFormat profile                           : Layer 3\nMode                                     : Joint stereo\nMode extension                           : MS Stereo\nCodec ID                                 : 55\nCodec ID/Hint                            : MP3\nDuration                                 : 1h 42mn\nBit rate mode                            : Variable\nBit rate                                 : 104 Kbps\nChannel(s)                               : 2 channels\nSampling rate                            : 44.1 KHz\nCompression mode                         : Lossy\nStream size                              : 75.8 MiB (11%)\nAlignment                                : Aligned on interleaves\nInterleave, duration                     : 26 ms (0.63 video frame)\nInterleave, preload duration             : 160 ms\nWriting library                          : LAME3.98.4\n\nLanguage: Serbian\nAudio: Serbian [Srpski]\n\nIMDb: http://www.imdb.com/title/tt2082185/\nRatings: 5.8/10 \n\nThanks to pirati.rs for this great release!","torrent":{"xt":"urn:btih:157bac70c0a04cb41e8a2d3f99fc458163d03b11","amp;dn":"Artiljero.2012.%5Bpirati.rs%5D","amp;tr":["udp%3A%2F%2Ftracker.openbittorrent.com%3A80","udp%3A%2F%2Fopen.demonii.com%3A1337","udp%3A%2F%2Ftracker.coppersurfer.tk%3A6969","udp%3A%2F%2Fexodus.desync.com%3A6969"],"infoHash":"157bac70c0a04cb41e8a2d3f99fc458163d03b11","infoHashBuffer":{"type":"Buffer","data":[21,123,172,112,192,160,76,180,30,138,45,63,153,252,69,129,99,208,59,17]},"announce":[],"urlList":[]}}